<svg xmlns="http://www.w3.org/2000/svg" xmlns:xlink="http://www.w3.org/1999/xlink" width="500" zoomAndPan="magnify" viewBox="0 0 375 374.999991" height="500" preserveAspectRatio="xMidYMid meet" version="1.0"><defs><clipPath id="a903b379f2"><path d="M 78.074219 114 L 206 114 L 206 313.035156 L 78.074219 313.035156 Z M 78.074219 114 " clip-rule="nonzero"/></clipPath><clipPath id="96da33cd25"><path d="M 151 218 L 297 218 L 297 313.035156 L 151 313.035156 Z M 151 218 " clip-rule="nonzero"/></clipPath><clipPath id="1fe07089f0"><path d="M 172 61.785156 L 252 61.785156 L 252 208 L 172 208 Z M 172 61.785156 " clip-rule="nonzero"/></clipPath><clipPath id="5b8d6de17c"><path d="M 196 258 L 252 258 L 252 313.035156 L 196 313.035156 Z M 196 258 " clip-rule="nonzero"/></clipPath></defs><rect x="-37.5" width="450" fill="#ffffff" y="-37.499999" height="449.999989" fill-opacity="1"/><rect x="-37.5" width="450" fill="#0cc0df" y="-37.499999" height="449.999989" fill-opacity="1"/><g clip-path="url(#a903b379f2)"><path fill="#ffffff" d="M 109.945312 313.070312 C 110.441406 312.683594 110.808594 312.113281 111.140625 311.34375 C 126.753906 275.230469 142.414062 239.128906 158.070312 203.03125 C 160.136719 198.253906 162.21875 193.484375 164.515625 188.203125 C 165.144531 189.214844 165.503906 189.679688 165.734375 190.199219 C 167.976562 195.25 170.246094 200.300781 172.410156 205.382812 C 173.101562 207.015625 174.085938 207.691406 175.917969 207.675781 C 184.554688 207.601562 193.183594 207.667969 201.820312 207.652344 C 202.953125 207.652344 204.089844 207.46875 205.746094 207.332031 C 192.207031 176.082031 178.851562 145.257812 165.5 114.429688 C 165.226562 114.371094 164.957031 114.304688 164.691406 114.242188 C 135.851562 180.445312 107.007812 246.648438 78.074219 313.070312 Z M 109.945312 313.070312 " fill-opacity="1" fill-rule="nonzero"/></g><g clip-path="url(#96da33cd25)"><path fill="#ffffff" d="M 232.515625 247.523438 C 235.152344 247.511719 236.539062 248.273438 237.617188 250.792969 C 246.210938 270.898438 254.96875 290.925781 263.632812 311 C 264.054688 311.984375 264.539062 312.667969 265.261719 313.070312 L 296.898438 313.070312 C 296.53125 312.09375 296.335938 311.53125 296.109375 310.988281 C 291.875 301.160156 287.648438 291.332031 283.394531 281.507812 C 274.746094 261.527344 266.089844 241.546875 257.453125 221.5625 C 256.769531 219.984375 256.078125 218.902344 253.949219 218.910156 C 224.597656 218.992188 195.246094 218.976562 165.890625 218.941406 C 164.203125 218.941406 163.304688 219.453125 162.628906 221.082031 C 159.8125 227.863281 156.832031 234.582031 153.925781 241.335938 C 153.09375 243.273438 152.296875 245.226562 151.316406 247.585938 C 153.125 247.585938 154.382812 247.585938 155.644531 247.585938 C 181.261719 247.578125 206.886719 247.609375 232.515625 247.523438 Z M 232.515625 247.523438 " fill-opacity="1" fill-rule="nonzero"/></g><g clip-path="url(#1fe07089f0)"><path fill="#ffffff" d="M 251.632812 207.488281 C 249.417969 207.488281 247.992188 207.488281 246.5625 207.488281 C 238.292969 207.488281 230.027344 207.414062 221.757812 207.53125 C 219.621094 207.558594 218.539062 206.84375 217.691406 204.890625 C 205.210938 176.097656 192.65625 147.34375 180.117188 118.578125 C 177.503906 112.589844 174.859375 106.621094 172.335938 100.597656 C 171.96875 99.714844 171.859375 98.433594 172.222656 97.585938 C 177.058594 86.238281 181.992188 74.9375 186.925781 63.628906 C 187.15625 63.097656 187.636719 62.675781 188.222656 61.910156 C 209.347656 110.414062 230.332031 158.597656 251.632812 207.488281 Z M 251.632812 207.488281 " fill-opacity="1" fill-rule="nonzero"/></g><g clip-path="url(#5b8d6de17c)"><path fill="#ffffff" d="M 219.066406 311.675781 C 219.351562 312.335938 219.6875 312.769531 220.09375 313.070312 L 251.640625 313.070312 C 251.445312 312.515625 251.332031 312.136719 251.179688 311.792969 C 243.804688 294.738281 236.449219 277.675781 228.964844 260.671875 C 228.597656 259.839844 227.066406 259.054688 226.0625 259.035156 C 218.074219 258.902344 210.078125 258.964844 202.082031 258.964844 C 200.289062 258.964844 198.496094 258.964844 196.355469 258.964844 C 196.597656 259.910156 196.640625 260.273438 196.785156 260.59375 C 204.214844 277.609375 211.6875 294.621094 219.066406 311.675781 Z M 219.066406 311.675781 " fill-opacity="1" fill-rule="nonzero"/></g></svg>